<svg width="16" height="16" viewBox="0 0 16 16" fill="none" xmlns="http://www.w3.org/2000/svg">
<g clip-path="url(#clip0_23:134)">
<path fill-rule="evenodd" clip-rule="evenodd" d="M6.98522 1.91425C7.87569 1.02379 10.5542 -0.345276 11.8636 0.964172C13.1731 2.27362 11.804 4.95213 10.9136 5.8426L10.2923 6.46388L6.36394 2.53553L6.98522 1.91425ZM5.65684 3.24264L1.76775 7.13173L5.69609 11.0601L9.58518 7.17098L5.65684 3.24264ZM-1.96695e-05 8.89949L1.06064 7.83883L4.98899 11.7672L3.92832 12.8278L-1.96695e-05 8.89949Z" fill="#A5B7F3"/>
<path fill-rule="evenodd" clip-rule="evenodd" d="M4.63543 13.535L3.92832 12.8278L4.6355 13.5349L4.6357 13.5347L4.63605 13.5343L4.63654 13.5338L4.63716 13.5332L4.63792 13.5325L4.63881 13.5316L4.63985 13.5305L4.64101 13.5294L4.64232 13.5281L4.64375 13.5266L4.64532 13.5251L4.64703 13.5234L4.64887 13.5215L4.65084 13.5195L4.65294 13.5174L4.65517 13.5152L4.65753 13.5128L4.66003 13.5104L4.66265 13.5077L4.66541 13.505L4.66829 13.5021L4.6713 13.4991L4.67444 13.4959L4.6777 13.4927L4.6811 13.4893L4.68462 13.4858L4.68826 13.4821L4.69203 13.4783L4.69593 13.4745L4.69995 13.4704L4.70409 13.4663L4.70836 13.462L4.71275 13.4576L4.71726 13.4531L4.72189 13.4485L4.72665 13.4437L4.73152 13.4389L4.73652 13.4339L4.74164 13.4287L4.74687 13.4235L4.75223 13.4182L4.7577 13.4127L4.76329 13.4071L4.769 13.4014L4.77482 13.3956L4.78076 13.3896L4.78682 13.3836L4.79299 13.3774L4.79928 13.3711L4.80568 13.3647L4.81219 13.3582L4.81882 13.3516L4.82556 13.3448L4.83241 13.338L4.83938 13.331L4.84645 13.3239L4.85364 13.3167L4.86093 13.3094L4.86834 13.302L4.87585 13.2945L4.88348 13.2869L4.89121 13.2792L4.89905 13.2713L4.907 13.2634L4.91505 13.2553L4.92321 13.2472L4.93148 13.2389L4.93985 13.2305L4.94832 13.2221L4.9569 13.2135L4.96558 13.2048L4.97437 13.196L4.98326 13.1871L4.99225 13.1781L5.00134 13.169L5.01054 13.1598L5.01983 13.1506L5.02922 13.1412L5.03872 13.1317L5.04831 13.1221L5.058 13.1124L5.06779 13.1026L5.07768 13.0927L5.08766 13.0827L5.09774 13.0726L5.10792 13.0625L5.11819 13.0522L5.12856 13.0418L5.13902 13.0314L5.14958 13.0208L5.16023 13.0102L5.17097 12.9994L5.18181 12.9886L5.19273 12.9776L5.20375 12.9666L5.21486 12.9555L5.22606 12.9443L5.23735 12.933L5.24873 12.9216L5.2602 12.9102L5.27176 12.8986L5.2834 12.887L5.29514 12.8752L5.30696 12.8634L5.31886 12.8515L5.33085 12.8395L5.34293 12.8274L5.35509 12.8153L5.36734 12.803L5.37967 12.7907L5.39209 12.7783L5.40458 12.7658L5.41716 12.7532L5.42982 12.7406L5.44257 12.7278L5.45539 12.715L5.4683 12.7021L5.48128 12.6891L5.49434 12.676L5.50748 12.6629L5.52071 12.6497L5.534 12.6364L5.54738 12.623L5.56083 12.6095L5.57436 12.596L5.58797 12.5824L5.60165 12.5687L5.6154 12.555L5.62923 12.5411L5.64314 12.5272L5.65711 12.5133L5.67116 12.4992L5.68528 12.4851L5.69609 12.4743L8.13169 14.9099L7.07103 15.9706L4.63543 13.535ZM10.9994 7.17099L11.0048 7.16563L11.0169 7.15344L11.0291 7.14133L11.0411 7.12931L11.053 7.11737L11.0649 7.10552L11.0766 7.09376L11.0883 7.08208L11.0999 7.0705L11.1114 7.059L11.1228 7.04758L11.1341 7.03626L11.1453 7.02503L11.1565 7.01389L11.1675 7.00284L11.1785 6.99188L11.1894 6.98101L11.2001 6.97024L11.2108 6.95955L11.2214 6.94897L11.2319 6.93847L11.2423 6.92807L11.2526 6.91776L11.2628 6.90755L11.2729 6.89744L11.283 6.88742L11.2929 6.8775L11.3027 6.86768L11.3124 6.85795L11.3221 6.84832L11.3316 6.83879L11.341 6.82937L11.3503 6.82004L11.3596 6.81081L11.3687 6.80168L11.3777 6.79265L11.3867 6.78373L11.3955 6.77491L11.4042 6.76619L11.4128 6.75757L11.4213 6.74906L11.4297 6.74065L11.438 6.73235L11.4462 6.72415L11.4543 6.71606L11.4623 6.70808L11.4702 6.7002L11.4779 6.69243L11.4856 6.68477L11.4932 6.67722L11.5006 6.66977L11.5079 6.66244L11.5152 6.65521L11.5223 6.6481L11.5293 6.64109L11.5362 6.6342L11.543 6.62742L11.5496 6.62076L11.5562 6.6142L11.5626 6.60776L11.5689 6.60143L11.5752 6.59522L11.5813 6.58913L11.5872 6.58315L11.5931 6.57728L11.5988 6.57153L11.6045 6.5659L11.61 6.56039L11.6154 6.55499L11.6207 6.54971C12.1913 5.97907 12.836 4.94072 13.1696 3.8539C13.1964 3.76642 13.222 3.67585 13.2457 3.58271C13.9106 3.51606 14.5439 3.64442 15.0063 4.10689C16.3158 5.41634 14.9467 8.09485 14.0563 8.98531L13.435 9.60659L10.9994 7.17099ZM9.58517 7.17099L5.69609 11.0601L4.91049 10.2745L4.20338 10.9816L4.98898 11.7672L4.63543 12.1207L3.92832 12.8278L3.14268 12.0422L10.1279 5.05697C10.5261 4.65875 11.282 4.16481 12.113 3.85752C11.8057 4.68857 11.3118 5.44439 10.9136 5.84261L10.2923 6.46389L9.50666 5.67827L8.79957 6.38539L9.58517 7.17099ZM10.2923 7.8781L10.2824 7.888L10.2665 7.9039L10.2505 7.91986L10.2345 7.93588L10.2184 7.95196L10.2023 7.96809L10.1861 7.98428L10.1699 8.00052L10.1536 8.01682L10.1372 8.03318L10.1208 8.04959L10.1043 8.06605L10.0878 8.08256L10.0713 8.09913L10.0546 8.11575L10.038 8.13242L10.0212 8.14914L10.0045 8.16591L9.98765 8.18273L9.97078 8.1996L9.95386 8.21652L9.93689 8.23349L9.91988 8.2505L9.90281 8.26757L9.8857 8.28468L9.86855 8.30183L9.85134 8.31904L9.8341 8.33628L9.8168 8.35358L9.79947 8.37091L9.78209 8.38829L9.76466 8.40572L9.74719 8.42319L9.72968 8.4407L9.71213 8.45825L9.69454 8.47584L9.67691 8.49347L9.65923 8.51115L9.64152 8.52886L9.62377 8.54661L9.60598 8.56441L9.58815 8.58224L9.57028 8.6001L9.55237 8.61801L9.53443 8.63595L9.51645 8.65393L9.49844 8.67194L9.48039 8.68999L9.46231 8.70808L9.44419 8.72619L9.42604 8.74435L9.40785 8.76253L9.38963 8.78075L9.37138 8.799L9.3531 8.81728L9.33479 8.83559L9.31644 8.85394L9.29807 8.87231L9.27966 8.89072L9.26123 8.90915L9.24277 8.92761L9.22428 8.9461L9.20576 8.96462L9.18722 8.98316L9.16865 9.00173L9.15005 9.02033L9.13143 9.03896L9.11278 9.0576L9.0941 9.07628L9.07541 9.09497L9.05669 9.1137L9.03794 9.13244L9.01917 9.15121L9.00039 9.16999L8.98158 9.18881L8.96274 9.20764L8.94389 9.22649L8.92502 9.24536L8.90613 9.26425L8.88722 9.28316L8.86829 9.30209L8.84934 9.32104L8.83037 9.34001L8.81139 9.35899L8.79239 9.37799L8.77338 9.397L8.75435 9.41604L8.7353 9.43508L8.71624 9.45414L8.69717 9.47322L8.67808 9.4923L8.65898 9.5114L8.63986 9.53052L8.62074 9.54964L8.6016 9.56878L8.58245 9.58793L8.56329 9.60709L8.54412 9.62626L8.52495 9.64543L8.50576 9.66462L8.48656 9.68382L8.46736 9.70302L8.44815 9.72223L8.42893 9.74145L8.40971 9.76067L8.39048 9.7799L8.37124 9.79914L8.352 9.81838L8.33275 9.83763L8.3135 9.85688L8.29425 9.87613L8.275 9.89539L8.25574 9.91464L8.23648 9.9339L8.21721 9.95317L8.19795 9.97243L8.17869 9.99169L8.15943 10.011L8.14016 10.0302L8.1209 10.0495L8.10164 10.0687L8.08239 10.088L8.06313 10.1072L8.04388 10.1265L8.02463 10.1457L8.00539 10.165L7.98615 10.1842L7.96691 10.2035L7.94769 10.2227L7.92846 10.2419L7.90925 10.2611L7.89004 10.2803L7.87084 10.2995L7.85165 10.3187L7.83246 10.3379L7.81329 10.3571L7.79412 10.3763L7.77497 10.3954L7.75582 10.4146L7.73669 10.4337L7.71757 10.4528L7.69846 10.4719L7.67936 10.491L7.66028 10.5101L7.64121 10.5292L7.62215 10.5482L7.60311 10.5673L7.58409 10.5863L7.56508 10.6053L7.54608 10.6243L7.52711 10.6433L7.50815 10.6622L7.48921 10.6812L7.47028 10.7001L7.45138 10.719L7.43249 10.7379L7.41363 10.7568L7.39478 10.7756L7.37596 10.7944L7.35716 10.8132L7.33838 10.832L7.31962 10.8508L7.30088 10.8695L7.28217 10.8882L7.26348 10.9069L7.24481 10.9256L7.22617 10.9442L7.20756 10.9628L7.18897 10.9814L7.17041 11L7.15187 11.0185L7.13337 11.037L7.11489 11.0555L7.09643 11.0739L7.07801 11.0924L7.05962 11.1108L7.04125 11.1291L7.02292 11.1475L7.00462 11.1658L6.98635 11.184L6.96811 11.2023L6.9499 11.2205L6.93173 11.2387L6.91359 11.2568L6.89548 11.2749L6.87741 11.293L6.85937 11.311L6.84137 11.329L6.82341 11.347L6.80548 11.3649L6.78759 11.3828L6.76973 11.4006L6.75191 11.4185L6.73414 11.4362L6.7164 11.454L6.6987 11.4717L6.68104 11.4893L6.66342 11.507L6.64584 11.5245L6.6283 11.5421L6.61081 11.5596L6.59336 11.577L6.57595 11.5944L6.55858 11.6118L6.54126 11.6291L6.52398 11.6464L6.50675 11.6636L6.48956 11.6808L6.47242 11.698L6.45533 11.7151L6.43828 11.7321L6.42128 11.7491L6.40433 11.766L6.40319 11.7672L8.83879 14.2028L12.7279 10.3137L10.2923 7.8781Z" fill="#A5B7F3"/>
</g>
<defs>
<clipPath id="clip0_23:134">
<rect width="16" height="16" fill="white"/>
</clipPath>
</defs>
</svg>
