<svg width="16" height="16" viewBox="0 0 16 16" fill="none" xmlns="http://www.w3.org/2000/svg">
<path fill-rule="evenodd" clip-rule="evenodd" d="M8.49998 14.9822C10.1737 14.8624 11.7553 14.1442 12.9497 12.9498C13.9172 11.9823 14.5723 10.7607 14.8499 9.44185C14.9254 9.08308 14.973 8.71712 14.9914 8.34711C14.9971 8.23178 15 8.11606 15 8.00004V8C15 7.76794 14.9885 7.53706 14.9657 7.30814C14.8066 5.70567 14.0984 4.19891 12.9497 3.05025C11.637 1.7375 9.8565 1 7.99998 1C7.62521 1 7.25354 1.03005 6.88818 1.08883C7.68849 1.76115 8.13254 2.89751 8.34325 3.89829C9.12298 5.29045 9.49998 6.6515 9.49998 8.00002C9.49998 8.02972 9.49798 8.0594 9.49599 8.08909C9.49435 8.11342 9.49271 8.13776 9.49217 8.16211C9.44476 8.16687 9.39727 8.17144 9.34971 8.17581C9.06897 8.20153 8.78578 8.22017 8.49998 8.23141V9.72079C8.72529 9.71079 8.9491 9.69697 9.17136 9.68011C9.21456 9.67683 9.2577 9.67345 9.30078 9.66995C9.27252 9.79352 9.24109 9.91726 9.20648 10.0412C9.04312 10.6262 8.80875 11.2153 8.49998 11.8099V14.9822ZM12.9707 7.50391C12.4818 7.63477 11.9907 7.75421 11.4951 7.85662C11.3299 7.89075 11.1642 7.92298 10.998 7.95312C10.9895 6.39042 10.5551 4.83902 9.73239 3.31642V3.31641C10.6099 3.64142 11.3787 4.20618 11.9512 4.94645C12.5236 5.68673 12.8769 6.57281 12.9707 7.50391ZM12.8789 9.08203C12.8675 9.13304 12.8554 9.18381 12.8425 9.23434L11.9625 11.0439C11.8991 11.1265 11.8329 11.2073 11.7642 11.286C11.5579 11.5222 11.3307 11.7376 11.0858 11.9299C10.6777 12.2503 10.2208 12.5064 9.73049 12.6875C10.0874 12.0273 10.3703 11.3615 10.5773 10.6919C10.7014 10.29 10.7982 9.88678 10.8672 9.48242C11.5492 9.37337 12.2228 9.24453 12.8789 9.08203Z" fill="#A5B7F3" fill-opacity="0.99608"/>
<path fill-rule="evenodd" clip-rule="evenodd" d="M2 5.12138C2 3.86207 2.92592 1 4.77776 1C6.6296 1 7.55552 3.86207 7.55552 5.12138V6H2V5.12138ZM2 7V12.5H7.55552V7H2ZM2 15V13.5H7.55552V15H2Z" fill="#F08888"/>
</svg>
