<svg width="16" height="16" viewBox="0 0 16 16" fill="none" xmlns="http://www.w3.org/2000/svg">
<path fill-rule="evenodd" clip-rule="evenodd" d="M1.5 5.12138C1.5 3.86207 2.42592 1 4.27776 1C6.1296 1 7.05552 3.86207 7.05552 5.12138V6H1.5V5.12138ZM1.5 7V12.5H7.05552V7H1.5ZM1.5 15V13.5H7.05552V15H1.5Z" fill="#A5B7F3"/>
<path fill-rule="evenodd" clip-rule="evenodd" d="M8.05552 15H7.05552L8.05552 14.9999V14.9996V14.9991V14.9984V14.9975V14.9965V14.9952V14.9937V14.9921V14.9903V14.9882V14.986V14.9836V14.981V14.9782V14.9752V14.9721V14.9687V14.9652V14.9615V14.9576V14.9535V14.9493V14.9448V14.9402V14.9354V14.9304V14.9253V14.9199V14.9144V14.9088V14.9029V14.8969V14.8907V14.8843V14.8777V14.871V14.8641V14.857V14.8498V14.8424V14.8348V14.8271V14.8192V14.8111V14.8029V14.7945V14.7859V14.7772V14.7683V14.7592V14.75V14.7406V14.7311V14.7214V14.7116V14.7016V14.6914V14.6811V14.6706V14.66V14.6492V14.6383V14.6272V14.6159V14.6046V14.593V14.5813V14.5695V14.5575V14.5454V14.5331V14.5207V14.5081V14.4954V14.4825V14.4695V14.4564V14.4431V14.4297V14.4161V14.4024V14.3885V14.3746V14.3604V14.3462V14.3318V14.3173V14.3026V14.2878V14.2729V14.2578V14.2426V14.2273V14.2118V14.1963V14.1806V14.1647V14.1487V14.1327V14.1164V14.1001V14.0836V14.067V14.0503V14.0335V14.0165V13.9994V13.9822V13.9649V13.9475V13.9299V13.9122V13.8945V13.8766V13.8585V13.8404V13.8221V13.8038V13.7853V13.7667V13.748V13.7292V13.7103V13.6913V13.6721V13.6529V13.6336V13.6141V13.5945V13.5749V13.5551V13.5352V13.5153V13.5H10.75V15H8.05552ZM5.19446 6V15H7.05552V14V13.5H5.19452L5.19452 12.5H7.05552V7H5.19448L5.19446 6ZM7.05552 6V5.12138C7.05552 4.39251 6.74534 3.12672 6.12499 2.18971C5.50463 3.12672 5.19446 4.39251 5.19446 5.12138V6H7.05552ZM8.05552 12.4984V12.5H10.75V7H8.05552V7.01399V7.03648V7.05906V7.08171V7.10445V7.12726V7.15016V7.17313V7.19618V7.21931V7.24252V7.26579V7.28915V7.31258V7.33608V7.35966V7.3833V7.40702V7.43081V7.45467V7.4786V7.50259V7.52666V7.55079V7.57499V7.59925V7.62358V7.64797V7.67242V7.69694V7.72152V7.74616V7.77087V7.79563V7.82045V7.84533V7.87027V7.89526V7.92031V7.94542V7.97058V7.9958V8.02107V8.04639V8.07176V8.09719V8.12266V8.14819V8.17376V8.19938V8.22505V8.25077V8.27654V8.30235V8.3282V8.3541V8.38004V8.40603V8.43205V8.45812V8.48423V8.51038V8.53657V8.56279V8.58906V8.61536V8.6417V8.66807V8.69448V8.72092V8.74739V8.7739V8.80044V8.82701V8.85362V8.88025V8.90691V8.9336V8.96032V8.98706V9.01383V9.04063V9.06745V9.09429V9.12116V9.14805V9.17497V9.2019V9.22886V9.25583V9.28283V9.30984V9.33687V9.36392V9.39098V9.41806V9.44516V9.47227V9.49939V9.52652V9.55367V9.58083V9.608V9.63517V9.66236V9.68956V9.71676V9.74397V9.77119V9.79841V9.82564V9.85287V9.88011V9.90734V9.93458V9.96183V9.98907V10.0163V10.0436V10.0708V10.098V10.1253V10.1525V10.1797V10.2069V10.2342V10.2614V10.2886V10.3158V10.3429V10.3701V10.3973V10.4244V10.4516V10.4787V10.5058V10.5329V10.56V10.5871V10.6142V10.6412V10.6682V10.6952V10.7222V10.7492V10.7761V10.8031V10.83V10.8568V10.8837V10.9105V10.9374V10.9641V10.9909V11.0176V11.0443V11.071V11.0977V11.1243V11.1509V11.1775V11.204V11.2305V11.2569V11.2834V11.3098V11.3361V11.3625V11.3887V11.415V11.4412V11.4674V11.4935V11.5196V11.5457V11.5717V11.5976V11.6236V11.6495V11.6753V11.7011V11.7268V11.7525V11.7782V11.8038V11.8294V11.8549V11.8803V11.9057V11.9311V11.9564V11.9816V12.0068V12.032V12.0571V12.0821V12.1071V12.132V12.1568V12.1816V12.2064V12.2311V12.2557V12.2802V12.3047V12.3292V12.3535V12.3779V12.4021V12.4263V12.4504V12.4744V12.4984ZM8.05552 6V5.99241V5.97517V5.95805V5.94105V5.92417V5.90741V5.89077V5.87426V5.85787V5.84161V5.82547V5.80946V5.79358V5.77782V5.76219V5.74669V5.73133V5.71609V5.70098V5.68601V5.67116V5.65645V5.64188V5.62744V5.61314V5.59897V5.58494V5.57104V5.55729V5.54367V5.5302V5.51686V5.50367V5.49062V5.47771V5.46494V5.45232V5.43985V5.42752V5.41533V5.40329V5.3914V5.37966V5.36807V5.35663V5.34534V5.3342V5.32321V5.31237V5.30169V5.29116V5.28079V5.27057V5.26051V5.25061V5.24086V5.23127V5.22185V5.21258V5.20347V5.19452V5.18574V5.17711V5.16866V5.16036V5.15223V5.14427V5.13647V5.12884V5.12138C8.05552 4.31436 7.77718 3.12425 7.24452 2.11991C7.12403 1.89271 6.97926 1.6553 6.80882 1.42501C7.14432 1.16165 7.53212 1 7.97222 1C9.82406 1 10.75 3.86207 10.75 5.12138V6H8.05552Z" fill="#A5B7F3"/>
<path fill-rule="evenodd" clip-rule="evenodd" d="M11.75 15H14.5556V13.5H11.75V15ZM11.75 12.5H14.5556V7H11.75V12.5ZM11.75 6V5.12138C11.75 4.21236 11.3158 2.46824 10.4474 1.56827C10.8192 1.22146 11.2627 1 11.7778 1C13.6296 1 14.5556 3.86207 14.5556 5.12138V6H11.75Z" fill="#A5B7F3"/>
</svg>
