<svg width="16" height="16" viewBox="0 0 16 16" fill="none" xmlns="http://www.w3.org/2000/svg">
<path fill-rule="evenodd" clip-rule="evenodd" d="M8.5 14.7343L8.88052 14.9246C8.97972 14.9742 9.0891 15 9.2 15C9.3109 15 9.42028 14.9742 9.51948 14.9246L13.8052 12.7816C13.9238 12.7222 14.0236 12.631 14.0933 12.5181C14.1631 12.4053 14.2 12.2752 14.2 12.1426V7.85653C14.2 7.72386 14.1631 7.59381 14.0933 7.48095C14.0236 7.36809 13.9238 7.27687 13.8052 7.21753L9.51948 5.07451C9.41217 5.02124 9.29319 4.99581 9.17349 5.00056H9.1735C9.07168 5.00404 8.97179 5.02925 8.88052 5.07451L8.5 5.26479V6.86252L9.2 6.513V6.51296L11.8884 7.85656L10.902 8.35046L8.5 7.14877V14.7343ZM12.7714 11.7017V9.01315L9.91429 10.4418V13.1304L12.7714 11.7017Z" fill="#F08888"/>
<path fill-rule="evenodd" clip-rule="evenodd" d="M2 5.12138C2 3.86207 2.92592 1 4.77776 1C6.6296 1 7.55552 3.86207 7.55552 5.12138V6H2V5.12138ZM2 7V12.5H7.55552V7H2ZM2 15V13.5H7.55552V15H2Z" fill="#F08888"/>
</svg>
