<svg width="16" height="16" viewBox="0 0 16 16" fill="none" xmlns="http://www.w3.org/2000/svg">
<rect width="16" height="16" fill="#313A56"/>
<path fill-rule="evenodd" clip-rule="evenodd" d="M2.61329 1.07812C2.73573 1.02666 2.86719 1.0001 3.00001 0.999993L2.99999 0.999985H13C13.132 0.999729 13.2628 1.02562 13.3848 1.07616L13.3965 1.08202C13.5124 1.1321 13.6178 1.20367 13.707 1.29296C13.7983 1.38362 13.8713 1.49106 13.9219 1.60937C13.9738 1.73302 14.0004 1.86586 14 1.99999C14 2.88745 13.6615 3.64354 13.1975 4.32752C11.415 4.51414 9.91311 5.17151 9.00704 6.5334C8.10798 7.88476 8.12037 9.42826 8.12736 10.3002C8.12793 10.3715 8.12847 10.4382 8.12847 10.5C8.12847 10.9774 8.11763 11.3261 8.08229 11.5942C8.06829 11.7004 8.05307 11.7707 8.04196 11.8134C8.03296 11.8172 8.02237 11.8215 8.01 11.8262C7.84224 11.8899 7.4514 11.9836 6.6586 11.9842C6.34949 11.982 6.04294 12.0403 5.75621 12.1557C5.46433 12.2733 5.19891 12.4477 4.97529 12.6686C4.75167 12.8895 4.57428 13.1526 4.45327 13.4424C4.33227 13.7322 4.27 14.0431 4.27 14.3571C4.27 14.5749 4.29996 14.7912 4.3587 15H2.99999C2.8706 14.9992 2.74258 14.9733 2.62304 14.9238C2.61357 14.92 2.60502 14.9162 2.5957 14.9121C2.48389 14.8633 2.38195 14.7945 2.29492 14.709C2.2944 14.7085 2.29368 14.7072 2.29295 14.706C2.29224 14.7048 2.29152 14.7036 2.29101 14.7031C2.20283 14.6148 2.13195 14.5108 2.08203 14.3965C2.08156 14.3954 2.08082 14.3945 2.08009 14.3936C2.07934 14.3926 2.07859 14.3917 2.07813 14.3906V14.3887C2.02641 14.2656 1.99985 14.1335 2 14C2 12.5 2.96692 11.3773 3.873 10.3418C4.6339 9.47229 5.28911 8.69739 5.748 7.99999C5.2891 7.30269 4.63381 6.52969 3.873 5.66019C2.96697 4.62469 2 3.49999 2 1.99999C2.00026 1.86928 2.02614 1.73989 2.07617 1.61913C2.07768 1.61546 2.07949 1.61212 2.0813 1.60878C2.08291 1.6058 2.08453 1.60282 2.08594 1.5996C2.1349 1.48625 2.20443 1.38294 2.29102 1.29491L2.29492 1.291C2.38437 1.20242 2.48973 1.13152 2.60547 1.08202C2.6066 1.08154 2.60749 1.08081 2.60838 1.08008C2.60929 1.07934 2.61019 1.0786 2.61133 1.07812H2.61329ZM11.5763 15H13C13.1286 14.9996 13.2559 14.9744 13.375 14.9258C13.3808 14.9234 13.3863 14.9207 13.3918 14.918C13.3959 14.916 13.4 14.914 13.4043 14.9121C13.513 14.8637 13.6122 14.7962 13.6973 14.7129L13.7109 14.6992C13.7951 14.6138 13.8633 14.5139 13.9121 14.4043C13.9162 14.395 13.92 14.3864 13.9238 14.3769C13.9734 14.2574 13.9992 14.1294 14 14C14 12.9152 13.4943 12.0278 12.8716 11.228C12.8548 12.1185 12.731 13.3574 11.9929 14.4666C11.8655 14.6581 11.7264 14.8357 11.5763 15ZM11.2029 6.74018C10.834 7.18685 10.5116 7.60553 10.252 7.99999C10.5095 8.39127 10.8287 8.80695 11.1938 9.25005C11.15 9.62347 11.1415 10.0466 11.1415 10.5L11.1418 10.6573C11.1437 11.582 11.1459 12.615 10.554 13.5063L10.5539 13.5063L10.5526 13.5083C10.0236 14.3035 9.05627 14.8185 7.54713 14.9602C7.45384 14.969 7.35846 14.9763 7.261 14.9822C7.14381 14.9893 7.02358 14.9942 6.90028 14.9971C6.81844 14.999 6.73525 14.9999 6.65069 14.9999L6.63247 14.9999C6.55364 14.9988 6.47563 14.9831 6.40238 14.9536C6.32349 14.9219 6.25169 14.8747 6.19114 14.8149C6.1306 14.7551 6.08253 14.6838 6.04971 14.6052C6.0169 14.5266 6 14.4423 6 14.3571C6 14.2719 6.0169 14.1875 6.04971 14.109C6.08253 14.0304 6.1306 13.9591 6.19114 13.8993C6.25169 13.8395 6.32349 13.7923 6.40238 13.7605C6.47563 13.731 6.55364 13.7154 6.63247 13.7142L6.65069 13.7142C6.73719 13.7142 6.82111 13.7133 6.90255 13.7115C7.04157 13.7083 7.17333 13.7025 7.29827 13.6943C7.36487 13.6899 7.42953 13.6848 7.49231 13.679C8.69079 13.5689 9.20589 13.2134 9.48369 12.7972L9.48374 12.7972L9.48507 12.7952C9.82023 12.2914 9.85847 11.4643 9.85847 10.5L9.85824 10.3427C9.85628 9.418 9.85409 8.38504 10.446 7.49372L10.4461 7.49365L10.4474 7.49167C10.6397 7.20268 10.8898 6.95069 11.2029 6.74018ZM11.4121 2.99999H4.58791H4.58785C4.65536 3.12514 4.70916 3.24283 4.76266 3.35987C4.8976 3.65507 5.03063 3.94608 5.37691 4.34179C5.55364 4.54378 5.73961 4.74767 5.92888 4.95519C6.64337 5.73853 7.40493 6.57349 7.89451 7.55269C7.9639 7.69158 8.00001 7.84471 7.99998 7.99996C7.99994 7.84471 8.03605 7.69158 8.10545 7.55269C8.59508 6.57342 9.35668 5.73843 10.0712 4.95503C10.2604 4.74757 10.4464 4.54373 10.623 4.34179C10.9693 3.94608 11.1023 3.65507 11.2373 3.35987C11.2908 3.24283 11.3446 3.12514 11.4121 2.99999Z" fill="#E0E0E0"/>
<path d="M6.5 14.36C8.5316 14.36 9.30384 13.9451 9.90192 13.2226C10.5 12.5 10.4908 11.1785 10.4908 10.2142C10.4908 9.24996 10.4161 8.63381 10.8642 7.91906C11.3124 7.20432 12 6.64 14.5 6.64" stroke="#E0E0E0" stroke-width="2.1" stroke-linecap="round"/>
</svg>
