<svg width="16" height="16" viewBox="0 0 16 16" fill="none" xmlns="http://www.w3.org/2000/svg">
<path fill-rule="evenodd" clip-rule="evenodd" d="M4.73105 3.75736C5.85627 2.63214 7.38239 2 8.97369 2C10.565 2 12.0911 2.63214 13.2163 3.75736C13.3731 3.91409 13.5202 4.07859 13.6574 4.24997C12.7968 4.30082 11.9906 4.45133 11.2723 4.72642C10.6036 4.25684 9.80189 4 8.97369 4C7.91283 4 6.89541 4.42143 6.14527 5.17157C5.39776 5.91908 4.97666 6.93198 4.97371 7.9888H7.00012L4.00006 11.989L1 7.9888H2.9737C2.97666 6.40154 3.60847 4.87994 4.73105 3.75736ZM12.9288 7.40238C12.8646 6.97717 12.7323 6.56642 12.5385 6.18559C12.8037 6.12315 13.0912 6.07592 13.4021 6.04474C13.5115 6.03377 13.6238 6.02479 13.739 6.01783C13.8562 6.01075 13.9764 6.00577 14.0997 6.00292C14.1816 6.00103 14.2648 6.00008 14.3493 6.00008L14.3675 6.00008C14.4464 6.0012 14.5244 6.01688 14.5976 6.04638C14.6175 6.05439 14.637 6.06339 14.6559 6.07332C14.7584 6.37548 14.8369 6.68619 14.8902 7.00257C14.8665 7.03783 14.8393 7.07072 14.8089 7.10073C14.7483 7.16055 14.6765 7.20771 14.5976 7.23947C14.5244 7.26897 14.4464 7.28464 14.3675 7.28577L14.3744 7.7699L14.3493 7.76998V7.28577C14.2628 7.28577 14.1789 7.28671 14.0975 7.28856C13.9585 7.29171 13.8267 7.2975 13.7017 7.30575C13.6183 7.31126 13.538 7.31786 13.4605 7.32552C13.2654 7.34479 13.0889 7.37069 12.9288 7.40238ZM12.7687 12.6474C12.9239 12.5206 13.0734 12.3856 13.2163 12.2426C14.1039 11.3551 14.6847 10.2181 14.8904 8.99639C14.7106 9.03707 14.5264 9.05709 14.3412 9.05578C13.5512 9.05641 13.1657 9.14993 13.0042 9.21122L12.992 9.21597C12.9819 9.25792 12.9692 9.32118 12.9574 9.41111C12.9224 9.6763 12.9116 10.0227 12.9116 10.5C12.9116 10.5617 12.9121 10.6285 12.9127 10.6999C12.9167 11.1865 12.9224 11.8867 12.7687 12.6474Z" fill="#A5B7F3"/>
<path d="M6.5 14.36C8.5316 14.36 9.30384 13.9451 9.90192 13.2226C10.5 12.5 10.4908 11.1785 10.4908 10.2142C10.4908 9.24996 10.4161 8.63381 10.8642 7.91906C11.3124 7.20432 12 6.64 14.5 6.64" stroke="#A5B7F3" stroke-width="2.1" stroke-linecap="round"/>
</svg>
